<mxfile host="app.diagrams.net" modified="2024-04-15T15:05:41.642Z" agent="Mozilla/5.0 (Windows NT 10.0; Win64; x64) AppleWebKit/537.36 (KHTML, like Gecko) Chrome/123.0.0.0 Safari/537.36 Edg/123.0.0.0" etag="KL9l2W362W2Y25onxVZK" version="24.2.5" type="github">
  <diagram name="Page-1" id="5d7acffa-a066-3a61-03fe-96351882024d">
    <mxGraphModel dx="1149" dy="891" grid="1" gridSize="10" guides="1" tooltips="1" connect="1" arrows="1" fold="1" page="1" pageScale="1" pageWidth="1100" pageHeight="850" background="#ffffff" math="0" shadow="0">
      <root>
        <mxCell id="0" />
        <mxCell id="1" parent="0" />
        <mxCell id="0KLfbmrs6LxNXjUzNSFt-11" style="edgeStyle=orthogonalEdgeStyle;rounded=0;orthogonalLoop=1;jettySize=auto;html=1;exitX=1;exitY=0.5;exitDx=0;exitDy=0;" parent="1" source="0KLfbmrs6LxNXjUzNSFt-1" target="0KLfbmrs6LxNXjUzNSFt-5" edge="1">
          <mxGeometry relative="1" as="geometry" />
        </mxCell>
        <mxCell id="0KLfbmrs6LxNXjUzNSFt-1" value="&lt;b style=&quot;background-color: initial;&quot;&gt;nest.Simulate()&lt;/b&gt;&lt;div&gt;hl_api_simulation.py&lt;/div&gt;" style="rounded=1;whiteSpace=wrap;html=1;" parent="1" vertex="1">
          <mxGeometry x="20" y="780" width="120" height="60" as="geometry" />
        </mxCell>
        <mxCell id="0KLfbmrs6LxNXjUzNSFt-8" value="" style="edgeStyle=orthogonalEdgeStyle;rounded=0;orthogonalLoop=1;jettySize=auto;html=1;" parent="1" source="0KLfbmrs6LxNXjUzNSFt-2" target="0KLfbmrs6LxNXjUzNSFt-5" edge="1">
          <mxGeometry relative="1" as="geometry" />
        </mxCell>
        <mxCell id="0KLfbmrs6LxNXjUzNSFt-2" value="&lt;b&gt;@check_stack&lt;/b&gt;&lt;div&gt;ll_api.py&lt;/div&gt;" style="rounded=1;whiteSpace=wrap;html=1;" parent="1" vertex="1">
          <mxGeometry x="160" y="660" width="120" height="60" as="geometry" />
        </mxCell>
        <mxCell id="0KLfbmrs6LxNXjUzNSFt-7" value="" style="edgeStyle=orthogonalEdgeStyle;rounded=0;orthogonalLoop=1;jettySize=auto;html=1;" parent="1" source="0KLfbmrs6LxNXjUzNSFt-5" target="0KLfbmrs6LxNXjUzNSFt-6" edge="1">
          <mxGeometry relative="1" as="geometry" />
        </mxCell>
        <mxCell id="0KLfbmrs6LxNXjUzNSFt-10" value="" style="edgeStyle=orthogonalEdgeStyle;rounded=0;orthogonalLoop=1;jettySize=auto;html=1;" parent="1" source="0KLfbmrs6LxNXjUzNSFt-5" target="0KLfbmrs6LxNXjUzNSFt-9" edge="1">
          <mxGeometry relative="1" as="geometry" />
        </mxCell>
        <mxCell id="0KLfbmrs6LxNXjUzNSFt-5" value="&lt;b&gt;sps(float(t))&lt;/b&gt;&lt;div&gt;ll_api.py&lt;/div&gt;" style="rounded=1;whiteSpace=wrap;html=1;" parent="1" vertex="1">
          <mxGeometry x="160" y="780" width="120" height="60" as="geometry" />
        </mxCell>
        <mxCell id="0KLfbmrs6LxNXjUzNSFt-18" value="" style="edgeStyle=orthogonalEdgeStyle;rounded=0;orthogonalLoop=1;jettySize=auto;html=1;" parent="1" source="0KLfbmrs6LxNXjUzNSFt-6" target="0KLfbmrs6LxNXjUzNSFt-17" edge="1">
          <mxGeometry relative="1" as="geometry" />
        </mxCell>
        <mxCell id="0KLfbmrs6LxNXjUzNSFt-6" value="&lt;b&gt;sr(&quot;ms Simulate&quot;)&lt;/b&gt;&lt;div&gt;&lt;b&gt;(sli_run)&lt;/b&gt;&lt;/div&gt;&lt;div&gt;ll_api.py&lt;/div&gt;" style="rounded=1;whiteSpace=wrap;html=1;" parent="1" vertex="1">
          <mxGeometry x="160" y="920" width="120" height="50" as="geometry" />
        </mxCell>
        <mxCell id="0KLfbmrs6LxNXjUzNSFt-9" value="&lt;b&gt;SLIinterpreter::OStack.push()&lt;/b&gt;&lt;div&gt;&lt;span style=&quot;background-color: initial;&quot;&gt;pynestkernel.pyx&lt;/span&gt;&lt;br&gt;&lt;/div&gt;" style="whiteSpace=wrap;html=1;rounded=1;" parent="1" vertex="1">
          <mxGeometry x="310" y="780" width="180" height="60" as="geometry" />
        </mxCell>
        <mxCell id="0KLfbmrs6LxNXjUzNSFt-12" value="" style="endArrow=none;html=1;rounded=0;dashed=1;" parent="1" edge="1">
          <mxGeometry width="50" height="50" relative="1" as="geometry">
            <mxPoint x="290" y="1250" as="sourcePoint" />
            <mxPoint x="290" y="460" as="targetPoint" />
            <Array as="points" />
          </mxGeometry>
        </mxCell>
        <mxCell id="0KLfbmrs6LxNXjUzNSFt-14" value="Python API Layer" style="text;html=1;align=center;verticalAlign=middle;resizable=0;points=[];autosize=1;strokeColor=none;fillColor=none;" parent="1" vertex="1">
          <mxGeometry x="80" y="480" width="120" height="30" as="geometry" />
        </mxCell>
        <mxCell id="0KLfbmrs6LxNXjUzNSFt-15" value="Cython Layer" style="text;html=1;align=center;verticalAlign=middle;resizable=0;points=[];autosize=1;strokeColor=none;fillColor=none;" parent="1" vertex="1">
          <mxGeometry x="370" y="480" width="90" height="30" as="geometry" />
        </mxCell>
        <mxCell id="0KLfbmrs6LxNXjUzNSFt-16" value="" style="endArrow=none;dashed=1;html=1;dashPattern=1 3;strokeWidth=2;rounded=0;" parent="1" edge="1">
          <mxGeometry width="50" height="50" relative="1" as="geometry">
            <mxPoint x="510" y="1247.5" as="sourcePoint" />
            <mxPoint x="510" y="470" as="targetPoint" />
          </mxGeometry>
        </mxCell>
        <mxCell id="0KLfbmrs6LxNXjUzNSFt-20" value="" style="edgeStyle=orthogonalEdgeStyle;rounded=0;orthogonalLoop=1;jettySize=auto;html=1;" parent="1" source="0KLfbmrs6LxNXjUzNSFt-17" target="0KLfbmrs6LxNXjUzNSFt-19" edge="1">
          <mxGeometry relative="1" as="geometry">
            <Array as="points">
              <mxPoint x="540" y="945" />
              <mxPoint x="540" y="750" />
            </Array>
          </mxGeometry>
        </mxCell>
        <mxCell id="0KLfbmrs6LxNXjUzNSFt-17" value="&lt;b&gt;SLIInterpreter::execute(cmd)&lt;/b&gt;&lt;div&gt;pynestkernel.pyx&lt;/div&gt;" style="rounded=1;whiteSpace=wrap;html=1;" parent="1" vertex="1">
          <mxGeometry x="310" y="920" width="180" height="50" as="geometry" />
        </mxCell>
        <mxCell id="0KLfbmrs6LxNXjUzNSFt-19" value="&lt;b&gt;SLIInterpreter::&lt;/b&gt;&lt;div&gt;&lt;b&gt;startup()&lt;/b&gt;&lt;/div&gt;&lt;div&gt;interpret.cc&lt;/div&gt;" style="whiteSpace=wrap;html=1;rounded=1;" parent="1" vertex="1">
          <mxGeometry x="590" y="720" width="120" height="60" as="geometry" />
        </mxCell>
        <mxCell id="0KLfbmrs6LxNXjUzNSFt-21" value="" style="endArrow=classic;html=1;rounded=0;" parent="1" target="0KLfbmrs6LxNXjUzNSFt-22" edge="1">
          <mxGeometry width="50" height="50" relative="1" as="geometry">
            <mxPoint x="540" y="944" as="sourcePoint" />
            <mxPoint x="600" y="944" as="targetPoint" />
            <Array as="points" />
          </mxGeometry>
        </mxCell>
        <mxCell id="0KLfbmrs6LxNXjUzNSFt-22" value="&lt;b&gt;Estack.push(cmd)&lt;/b&gt;&lt;div&gt;interpret.cc&lt;/div&gt;" style="rounded=1;whiteSpace=wrap;html=1;" parent="1" vertex="1">
          <mxGeometry x="590" y="915" width="120" height="60" as="geometry" />
        </mxCell>
        <mxCell id="M_GRNKf3xNEplnwXagMy-3" value="" style="edgeStyle=orthogonalEdgeStyle;rounded=0;orthogonalLoop=1;jettySize=auto;html=1;" parent="1" source="0KLfbmrs6LxNXjUzNSFt-23" target="M_GRNKf3xNEplnwXagMy-2" edge="1">
          <mxGeometry relative="1" as="geometry" />
        </mxCell>
        <mxCell id="0KLfbmrs6LxNXjUzNSFt-23" value="&lt;b&gt;SLIInterpreter::&lt;/b&gt;&lt;div&gt;&lt;b&gt;execute_()&lt;/b&gt;&lt;/div&gt;&lt;div&gt;interpret.cc&lt;/div&gt;" style="rounded=1;whiteSpace=wrap;html=1;" parent="1" vertex="1">
          <mxGeometry x="590" y="1080" width="120" height="60" as="geometry" />
        </mxCell>
        <mxCell id="0KLfbmrs6LxNXjUzNSFt-25" value="" style="endArrow=classic;html=1;rounded=0;entryX=0;entryY=0.5;entryDx=0;entryDy=0;" parent="1" target="0KLfbmrs6LxNXjUzNSFt-23" edge="1">
          <mxGeometry width="50" height="50" relative="1" as="geometry">
            <mxPoint x="540" y="940" as="sourcePoint" />
            <mxPoint x="500" y="1110" as="targetPoint" />
            <Array as="points">
              <mxPoint x="540" y="1020" />
              <mxPoint x="540" y="1110" />
            </Array>
          </mxGeometry>
        </mxCell>
        <mxCell id="M_GRNKf3xNEplnwXagMy-1" value="C++ Layer" style="text;html=1;align=center;verticalAlign=middle;whiteSpace=wrap;rounded=0;" parent="1" vertex="1">
          <mxGeometry x="880" y="480" width="60" height="30" as="geometry" />
        </mxCell>
        <mxCell id="M_GRNKf3xNEplnwXagMy-5" value="" style="edgeStyle=orthogonalEdgeStyle;rounded=0;orthogonalLoop=1;jettySize=auto;html=1;" parent="1" source="M_GRNKf3xNEplnwXagMy-2" target="M_GRNKf3xNEplnwXagMy-4" edge="1">
          <mxGeometry relative="1" as="geometry" />
        </mxCell>
        <mxCell id="M_GRNKf3xNEplnwXagMy-2" value="&lt;b&gt;SimulationFunction::&lt;/b&gt;&lt;div&gt;&lt;b&gt;execute(i)&lt;/b&gt;&lt;/div&gt;&lt;div&gt;nestmodule.cpp&lt;/div&gt;" style="rounded=1;whiteSpace=wrap;html=1;" parent="1" vertex="1">
          <mxGeometry x="790" y="1080" width="120" height="60" as="geometry" />
        </mxCell>
        <mxCell id="M_GRNKf3xNEplnwXagMy-7" value="" style="edgeStyle=orthogonalEdgeStyle;rounded=0;orthogonalLoop=1;jettySize=auto;html=1;" parent="1" source="M_GRNKf3xNEplnwXagMy-4" target="M_GRNKf3xNEplnwXagMy-6" edge="1">
          <mxGeometry relative="1" as="geometry" />
        </mxCell>
        <mxCell id="M_GRNKf3xNEplnwXagMy-4" value="&lt;b&gt;simulate(t)&lt;/b&gt;&lt;div&gt;nest.cpp&lt;/div&gt;" style="rounded=1;whiteSpace=wrap;html=1;" parent="1" vertex="1">
          <mxGeometry x="990" y="1080" width="120" height="60" as="geometry" />
        </mxCell>
        <mxCell id="M_GRNKf3xNEplnwXagMy-6" value="&lt;b&gt;run()&lt;/b&gt;&lt;div&gt;nest.cpp&lt;/div&gt;" style="rounded=1;whiteSpace=wrap;html=1;" parent="1" vertex="1">
          <mxGeometry x="1190" y="1080" width="120" height="60" as="geometry" />
        </mxCell>
        <mxCell id="M_GRNKf3xNEplnwXagMy-8" value="" style="endArrow=none;html=1;rounded=0;" parent="1" edge="1">
          <mxGeometry width="50" height="50" relative="1" as="geometry">
            <mxPoint x="1130" y="1340" as="sourcePoint" />
            <mxPoint x="1130" y="880" as="targetPoint" />
          </mxGeometry>
        </mxCell>
        <mxCell id="M_GRNKf3xNEplnwXagMy-10" value="" style="endArrow=classic;html=1;rounded=0;" parent="1" edge="1">
          <mxGeometry width="50" height="50" relative="1" as="geometry">
            <mxPoint x="1130" y="880" as="sourcePoint" />
            <mxPoint x="1190" y="880" as="targetPoint" />
          </mxGeometry>
        </mxCell>
        <mxCell id="M_GRNKf3xNEplnwXagMy-11" value="&lt;b&gt;KernelManager::&lt;/b&gt;&lt;div&gt;&lt;b&gt;prepare()&lt;/b&gt;&lt;div&gt;kernel_manager.cpp&lt;/div&gt;&lt;/div&gt;&lt;div&gt;&lt;b&gt;5min&lt;/b&gt;&lt;/div&gt;" style="rounded=1;whiteSpace=wrap;html=1;" parent="1" vertex="1">
          <mxGeometry x="1190" y="850" width="120" height="60" as="geometry" />
        </mxCell>
        <mxCell id="M_GRNKf3xNEplnwXagMy-12" value="&lt;b&gt;KernelManager::&lt;/b&gt;&lt;div&gt;&lt;b&gt;cleanup()&lt;/b&gt;&lt;div&gt;kernell_manager.cpp&lt;/div&gt;&lt;/div&gt;" style="rounded=1;whiteSpace=wrap;html=1;" parent="1" vertex="1">
          <mxGeometry x="1190" y="1310" width="120" height="60" as="geometry" />
        </mxCell>
        <mxCell id="M_GRNKf3xNEplnwXagMy-13" value="" style="endArrow=classic;html=1;rounded=0;" parent="1" edge="1">
          <mxGeometry width="50" height="50" relative="1" as="geometry">
            <mxPoint x="1130" y="1339.33" as="sourcePoint" />
            <mxPoint x="1190" y="1339.33" as="targetPoint" />
          </mxGeometry>
        </mxCell>
        <mxCell id="M_GRNKf3xNEplnwXagMy-14" value="" style="endArrow=classic;html=1;rounded=0;" parent="1" edge="1">
          <mxGeometry width="50" height="50" relative="1" as="geometry">
            <mxPoint x="1310" y="879" as="sourcePoint" />
            <mxPoint x="1360" y="879" as="targetPoint" />
          </mxGeometry>
        </mxCell>
        <mxCell id="M_GRNKf3xNEplnwXagMy-15" value="&lt;b&gt;SimulationManager::&lt;/b&gt;&lt;div&gt;&lt;b&gt;prepare()&lt;/b&gt;&lt;div&gt;simulation_manager.cpp&lt;/div&gt;&lt;/div&gt;" style="rounded=1;whiteSpace=wrap;html=1;" parent="1" vertex="1">
          <mxGeometry x="1360" y="850" width="150" height="60" as="geometry" />
        </mxCell>
        <mxCell id="M_GRNKf3xNEplnwXagMy-16" value="" style="endArrow=classic;html=1;rounded=0;" parent="1" edge="1">
          <mxGeometry width="50" height="50" relative="1" as="geometry">
            <mxPoint x="1310" y="1109" as="sourcePoint" />
            <mxPoint x="1360" y="1109" as="targetPoint" />
          </mxGeometry>
        </mxCell>
        <mxCell id="M_GRNKf3xNEplnwXagMy-37" value="" style="edgeStyle=orthogonalEdgeStyle;rounded=0;orthogonalLoop=1;jettySize=auto;html=1;" parent="1" source="M_GRNKf3xNEplnwXagMy-17" target="M_GRNKf3xNEplnwXagMy-36" edge="1">
          <mxGeometry relative="1" as="geometry" />
        </mxCell>
        <mxCell id="M_GRNKf3xNEplnwXagMy-17" value="&lt;b&gt;SimulationManager::&lt;/b&gt;&lt;div&gt;&lt;b&gt;run()&lt;/b&gt;&lt;div&gt;simulation_manager.cpp&lt;/div&gt;&lt;/div&gt;" style="rounded=1;whiteSpace=wrap;html=1;" parent="1" vertex="1">
          <mxGeometry x="1360" y="1080" width="150" height="60" as="geometry" />
        </mxCell>
        <mxCell id="M_GRNKf3xNEplnwXagMy-18" value="managers" style="swimlane;fontStyle=0;childLayout=stackLayout;horizontal=1;startSize=30;horizontalStack=0;resizeParent=1;resizeParentMax=0;resizeLast=0;collapsible=1;marginBottom=0;whiteSpace=wrap;html=1;" parent="1" vertex="1">
          <mxGeometry x="1365" y="455" width="140" height="385" as="geometry" />
        </mxCell>
        <mxCell id="M_GRNKf3xNEplnwXagMy-19" value="logging_manager" style="text;strokeColor=none;fillColor=none;align=left;verticalAlign=middle;spacingLeft=4;spacingRight=4;overflow=hidden;points=[[0,0.5],[1,0.5]];portConstraint=eastwest;rotatable=0;whiteSpace=wrap;html=1;" parent="M_GRNKf3xNEplnwXagMy-18" vertex="1">
          <mxGeometry y="30" width="140" height="25" as="geometry" />
        </mxCell>
        <mxCell id="M_GRNKf3xNEplnwXagMy-20" value="mpi_manager" style="text;strokeColor=none;fillColor=none;align=left;verticalAlign=middle;spacingLeft=4;spacingRight=4;overflow=hidden;points=[[0,0.5],[1,0.5]];portConstraint=eastwest;rotatable=0;whiteSpace=wrap;html=1;" parent="M_GRNKf3xNEplnwXagMy-18" vertex="1">
          <mxGeometry y="55" width="140" height="25" as="geometry" />
        </mxCell>
        <mxCell id="M_GRNKf3xNEplnwXagMy-21" value="vp_manager" style="text;strokeColor=none;fillColor=none;align=left;verticalAlign=middle;spacingLeft=4;spacingRight=4;overflow=hidden;points=[[0,0.5],[1,0.5]];portConstraint=eastwest;rotatable=0;whiteSpace=wrap;html=1;" parent="M_GRNKf3xNEplnwXagMy-18" vertex="1">
          <mxGeometry y="80" width="140" height="25" as="geometry" />
        </mxCell>
        <mxCell id="M_GRNKf3xNEplnwXagMy-23" value="module_manager" style="text;strokeColor=none;fillColor=none;align=left;verticalAlign=middle;spacingLeft=4;spacingRight=4;overflow=hidden;points=[[0,0.5],[1,0.5]];portConstraint=eastwest;rotatable=0;whiteSpace=wrap;html=1;" parent="M_GRNKf3xNEplnwXagMy-18" vertex="1">
          <mxGeometry y="105" width="140" height="25" as="geometry" />
        </mxCell>
        <mxCell id="M_GRNKf3xNEplnwXagMy-24" value="random_manager" style="text;strokeColor=none;fillColor=none;align=left;verticalAlign=middle;spacingLeft=4;spacingRight=4;overflow=hidden;points=[[0,0.5],[1,0.5]];portConstraint=eastwest;rotatable=0;whiteSpace=wrap;html=1;" parent="M_GRNKf3xNEplnwXagMy-18" vertex="1">
          <mxGeometry y="130" width="140" height="25" as="geometry" />
        </mxCell>
        <mxCell id="M_GRNKf3xNEplnwXagMy-25" value="simulation_manager" style="text;strokeColor=none;fillColor=none;align=left;verticalAlign=middle;spacingLeft=4;spacingRight=4;overflow=hidden;points=[[0,0.5],[1,0.5]];portConstraint=eastwest;rotatable=0;whiteSpace=wrap;html=1;" parent="M_GRNKf3xNEplnwXagMy-18" vertex="1">
          <mxGeometry y="155" width="140" height="25" as="geometry" />
        </mxCell>
        <mxCell id="M_GRNKf3xNEplnwXagMy-33" value="modelrange_manager" style="text;strokeColor=none;fillColor=none;align=left;verticalAlign=middle;spacingLeft=4;spacingRight=4;overflow=hidden;points=[[0,0.5],[1,0.5]];portConstraint=eastwest;rotatable=0;whiteSpace=wrap;html=1;" parent="M_GRNKf3xNEplnwXagMy-18" vertex="1">
          <mxGeometry y="180" width="140" height="25" as="geometry" />
        </mxCell>
        <mxCell id="M_GRNKf3xNEplnwXagMy-32" value="connection_manager" style="text;strokeColor=none;fillColor=none;align=left;verticalAlign=middle;spacingLeft=4;spacingRight=4;overflow=hidden;points=[[0,0.5],[1,0.5]];portConstraint=eastwest;rotatable=0;whiteSpace=wrap;html=1;" parent="M_GRNKf3xNEplnwXagMy-18" vertex="1">
          <mxGeometry y="205" width="140" height="25" as="geometry" />
        </mxCell>
        <mxCell id="M_GRNKf3xNEplnwXagMy-31" value="sp_manager" style="text;strokeColor=none;fillColor=none;align=left;verticalAlign=middle;spacingLeft=4;spacingRight=4;overflow=hidden;points=[[0,0.5],[1,0.5]];portConstraint=eastwest;rotatable=0;whiteSpace=wrap;html=1;" parent="M_GRNKf3xNEplnwXagMy-18" vertex="1">
          <mxGeometry y="230" width="140" height="25" as="geometry" />
        </mxCell>
        <mxCell id="M_GRNKf3xNEplnwXagMy-30" value="event_delivery_manager" style="text;strokeColor=none;fillColor=none;align=left;verticalAlign=middle;spacingLeft=4;spacingRight=4;overflow=hidden;points=[[0,0.5],[1,0.5]];portConstraint=eastwest;rotatable=0;whiteSpace=wrap;html=1;" parent="M_GRNKf3xNEplnwXagMy-18" vertex="1">
          <mxGeometry y="255" width="140" height="25" as="geometry" />
        </mxCell>
        <mxCell id="M_GRNKf3xNEplnwXagMy-29" value="io_manager" style="text;strokeColor=none;fillColor=none;align=left;verticalAlign=middle;spacingLeft=4;spacingRight=4;overflow=hidden;points=[[0,0.5],[1,0.5]];portConstraint=eastwest;rotatable=0;whiteSpace=wrap;html=1;" parent="M_GRNKf3xNEplnwXagMy-18" vertex="1">
          <mxGeometry y="280" width="140" height="25" as="geometry" />
        </mxCell>
        <mxCell id="M_GRNKf3xNEplnwXagMy-28" value="model_manager" style="text;strokeColor=none;fillColor=none;align=left;verticalAlign=middle;spacingLeft=4;spacingRight=4;overflow=hidden;points=[[0,0.5],[1,0.5]];portConstraint=eastwest;rotatable=0;whiteSpace=wrap;html=1;" parent="M_GRNKf3xNEplnwXagMy-18" vertex="1">
          <mxGeometry y="305" width="140" height="25" as="geometry" />
        </mxCell>
        <mxCell id="M_GRNKf3xNEplnwXagMy-27" value="music_manager" style="text;strokeColor=none;fillColor=none;align=left;verticalAlign=middle;spacingLeft=4;spacingRight=4;overflow=hidden;points=[[0,0.5],[1,0.5]];portConstraint=eastwest;rotatable=0;whiteSpace=wrap;html=1;" parent="M_GRNKf3xNEplnwXagMy-18" vertex="1">
          <mxGeometry y="330" width="140" height="25" as="geometry" />
        </mxCell>
        <mxCell id="M_GRNKf3xNEplnwXagMy-26" value="node_manager" style="text;strokeColor=none;fillColor=none;align=left;verticalAlign=middle;spacingLeft=4;spacingRight=4;overflow=hidden;points=[[0,0.5],[1,0.5]];portConstraint=eastwest;rotatable=0;whiteSpace=wrap;html=1;" parent="M_GRNKf3xNEplnwXagMy-18" vertex="1">
          <mxGeometry y="355" width="140" height="30" as="geometry" />
        </mxCell>
        <mxCell id="M_GRNKf3xNEplnwXagMy-34" value="" style="endArrow=classic;html=1;rounded=0;" parent="1" edge="1">
          <mxGeometry width="50" height="50" relative="1" as="geometry">
            <mxPoint x="1510" y="879.29" as="sourcePoint" />
            <mxPoint x="1570" y="879.29" as="targetPoint" />
          </mxGeometry>
        </mxCell>
        <mxCell id="M_GRNKf3xNEplnwXagMy-35" value="&lt;b&gt;SimulationManager::&lt;/b&gt;&lt;div&gt;&lt;b&gt;update_connection&lt;/b&gt;&lt;b style=&quot;background-color: initial;&quot;&gt;_&lt;/b&gt;&lt;/div&gt;&lt;div&gt;&lt;b style=&quot;background-color: initial;&quot;&gt;infrastructure&lt;/b&gt;&lt;b style=&quot;background-color: initial;&quot;&gt;(tid)&lt;/b&gt;&lt;/div&gt;&lt;div&gt;&lt;span style=&quot;background-color: initial;&quot;&gt;simulation_manager.cpp&lt;/span&gt;&lt;/div&gt;" style="rounded=1;whiteSpace=wrap;html=1;" parent="1" vertex="1">
          <mxGeometry x="1570" y="850" width="170" height="60" as="geometry" />
        </mxCell>
        <mxCell id="M_GRNKf3xNEplnwXagMy-39" value="" style="edgeStyle=orthogonalEdgeStyle;rounded=0;orthogonalLoop=1;jettySize=auto;html=1;" parent="1" source="M_GRNKf3xNEplnwXagMy-36" target="M_GRNKf3xNEplnwXagMy-38" edge="1">
          <mxGeometry relative="1" as="geometry" />
        </mxCell>
        <mxCell id="M_GRNKf3xNEplnwXagMy-36" value="&lt;b&gt;SimulationManager::&lt;/b&gt;&lt;div&gt;&lt;b&gt;call_update()&lt;/b&gt;&lt;br&gt;&lt;div&gt;simulation_manager.cpp&lt;/div&gt;&lt;/div&gt;" style="rounded=1;whiteSpace=wrap;html=1;" parent="1" vertex="1">
          <mxGeometry x="1560" y="1080" width="150" height="60" as="geometry" />
        </mxCell>
        <mxCell id="M_GRNKf3xNEplnwXagMy-38" value="&lt;b&gt;SimulationManager::&lt;/b&gt;&lt;div&gt;&lt;b style=&quot;background-color: initial;&quot;&gt;update()&lt;/b&gt;&lt;div&gt;&lt;div&gt;simulation_manager.cpp&lt;/div&gt;&lt;/div&gt;&lt;/div&gt;" style="rounded=1;whiteSpace=wrap;html=1;" parent="1" vertex="1">
          <mxGeometry x="1790" y="1080" width="150" height="60" as="geometry" />
        </mxCell>
      </root>
    </mxGraphModel>
  </diagram>
</mxfile>
